<svg width="385" height="79" viewBox="0 0 385 79" fill="none" xmlns="http://www.w3.org/2000/svg">
<path d="M31.9349 46.1637H41.7383C41.5416 49.3769 40.6564 52.2294 39.0826 54.7212C37.5306 57.213 35.3557 59.1584 32.5579 60.5574C29.7819 61.9563 26.4376 62.6557 22.5249 62.6557C19.4648 62.6557 16.7216 62.1311 14.2953 61.082C11.869 60.0109 9.7925 58.4808 8.0657 56.4917C6.36075 54.5026 5.06019 52.0982 4.164 49.2785C3.26781 46.4588 2.81972 43.3003 2.81972 39.8029V36.4914C2.81972 32.9941 3.27874 29.8356 4.19679 27.0159C5.13669 24.1743 6.47004 21.7589 8.19685 19.7698C9.94551 17.7807 12.033 16.2507 14.4592 15.1796C16.8855 14.1086 19.5959 13.573 22.5905 13.573C26.5687 13.573 29.924 14.2943 32.6562 15.737C35.4104 17.1796 37.5416 19.1687 39.0498 21.7043C40.5799 24.2399 41.4979 27.1251 41.8039 30.3602H31.9677C31.8584 28.4366 31.4759 26.8082 30.8201 25.4748C30.1644 24.1196 29.1698 23.1032 27.8365 22.4256C26.525 21.7262 24.7763 21.3764 22.5905 21.3764C20.9511 21.3764 19.5194 21.6824 18.2954 22.2945C17.0713 22.9065 16.044 23.8355 15.2133 25.0814C14.3827 26.3273 13.7598 27.9011 13.3445 29.8028C12.951 31.6826 12.7543 33.8903 12.7543 36.4258V39.8029C12.7543 42.2729 12.9401 44.4478 13.3117 46.3276C13.6833 48.1856 14.2516 49.7594 15.0166 51.049C15.8035 52.3168 16.809 53.2786 18.0331 53.9343C19.279 54.5682 20.7763 54.8851 22.5249 54.8851C24.5796 54.8851 26.2736 54.5573 27.607 53.9015C28.9403 53.2458 29.9567 52.2731 30.6562 50.9834C31.3775 49.6938 31.8038 48.0872 31.9349 46.1637ZM73.0503 49.508C73.0503 48.6555 72.9192 47.8905 72.6569 47.2129C72.4164 46.5134 71.9574 45.8795 71.2798 45.3112C70.6022 44.721 69.6513 44.1418 68.4273 43.5735C67.2032 43.0052 65.6185 42.415 63.6731 41.803C61.5091 41.1035 59.4545 40.3166 57.5091 39.4423C55.5856 38.5679 53.8806 37.5515 52.3943 36.393C50.9297 35.2127 49.7713 33.8466 48.9188 32.2946C48.0882 30.7427 47.6729 28.9394 47.6729 26.8847C47.6729 24.8956 48.11 23.0923 48.9844 21.4748C49.8587 19.8354 51.0828 18.4365 52.6566 17.278C54.2303 16.0977 56.0883 15.1905 58.2304 14.5566C60.3944 13.9228 62.766 13.6058 65.3453 13.6058C68.8644 13.6058 71.9355 14.2397 74.5585 15.5075C77.1815 16.7753 79.2143 18.513 80.657 20.7207C82.1215 22.9284 82.8537 25.453 82.8537 28.2946H73.0831C73.0831 26.8956 72.788 25.6716 72.1978 24.6224C71.6295 23.5513 70.7552 22.7098 69.5748 22.0977C68.4164 21.4857 66.9519 21.1797 65.1813 21.1797C63.4764 21.1797 62.0556 21.442 60.919 21.9666C59.7823 22.4693 58.9299 23.1579 58.3616 24.0322C57.7932 24.8847 57.5091 25.8464 57.5091 26.9175C57.5091 27.7262 57.7058 28.4585 58.0993 29.1142C58.5146 29.77 59.1266 30.382 59.9354 30.9503C60.7441 31.5187 61.7387 32.0542 62.919 32.5569C64.0993 33.0597 65.4655 33.5515 67.0174 34.0324C69.6186 34.8193 71.9027 35.7045 73.87 36.6881C75.8591 37.6718 77.5203 38.7756 78.8537 39.9997C80.187 41.2237 81.1925 42.6117 81.8701 44.1637C82.5477 45.7156 82.8865 47.4752 82.8865 49.4424C82.8865 51.519 82.4821 53.3769 81.6734 55.0163C80.8646 56.6557 79.6952 58.0437 78.1651 59.1803C76.6351 60.3169 74.8099 61.1803 72.6896 61.7705C70.5694 62.3607 68.1978 62.6557 65.5748 62.6557C63.2141 62.6557 60.8862 62.3497 58.5911 61.7377C56.296 61.1038 54.2085 60.153 52.3287 58.8852C50.4707 57.6174 48.9844 55.9999 47.8696 54.0327C46.7548 52.0654 46.1974 49.7375 46.1974 47.049H56.0664C56.0664 48.5353 56.296 49.7922 56.755 50.8195C57.214 51.8468 57.8588 52.6775 58.6894 53.3113C59.5419 53.9452 60.5474 54.4043 61.7059 54.6884C62.8862 54.9726 64.1759 55.1146 65.5748 55.1146C67.2797 55.1146 68.6787 54.8742 69.7716 54.3933C70.8863 53.9124 71.706 53.2458 72.2306 52.3933C72.7771 51.5408 73.0503 50.5791 73.0503 49.508Z" fill="white"/>
<path d="M104.028 63.8806L105.695 62.2129C105.851 62.0577 105.851 61.8036 105.695 61.6485C105.54 61.493 105.285 61.493 105.13 61.6474L103.463 63.3154C103.09 63.6887 103.655 64.2542 104.028 63.8806ZM126.416 46.5636L126.72 46.2598L127.721 45.2587L128.339 44.6409L128.063 44.3652C128.062 44.342 128.06 44.3191 128.057 44.2966C128.235 43.9296 128.17 43.473 127.867 43.1693C127.483 42.7853 126.856 42.7851 126.472 43.1683L125.324 44.3166L125.214 44.4265C125.365 45.2111 125.792 45.5512 126.602 45.5502C126.904 45.5501 126.76 45.8101 126.635 45.8493C125.967 46.0596 125.305 45.7547 124.683 44.963C124.289 45.425 124.311 46.1258 124.748 46.5628C125.207 47.0219 125.957 47.0218 126.416 46.5636M125.188 33.4072L125.179 33.3985C124.909 33.1276 124.908 32.6884 125.179 32.4183L125.112 32.3525C124.923 32.1625 124.613 32.1623 124.424 32.3517L118.425 38.3504C118.236 38.5398 118.236 38.8494 118.426 39.039L118.492 39.1048C118.763 38.8348 119.201 38.8351 119.472 39.1058L119.481 39.1151L125.188 33.4072ZM139.208 21.2181L140.365 20.0611L140.719 19.7071L140.739 19.6868L140.737 19.6854C140.79 19.6141 140.783 19.5123 140.719 19.448L140.164 18.8933C140.093 18.822 139.977 18.8219 139.905 18.8931L139.708 19.0907L139.652 19.0588L138.75 18.5373L138.424 18.8641L138.84 21.239L139.208 21.2181ZM151.441 11.3764L151.531 11.4665C151.531 11.4665 151.697 11.4018 152.069 11.0298C152.441 10.6579 152.54 10.4757 152.54 10.4757L152.441 10.3763L152.342 10.277C152.342 10.277 152.159 10.3763 151.788 10.7482C151.416 11.1201 151.351 11.2864 151.351 11.2864L151.441 11.3764ZM152.886 10.2133C152.919 10.1798 152.883 10.0899 152.805 10.012C152.727 9.93423 152.638 9.89813 152.604 9.93161C152.571 9.96476 152.607 10.055 152.684 10.1327C152.762 10.2106 152.853 10.2464 152.886 10.2133ZM100.5 60.968C101.174 60.6315 101.216 60.3986 101.722 59.8983L109.767 51.6614C109.816 51.6107 109.994 51.6854 110.121 51.6138L114.979 46.7063C114.854 46.5583 114.82 46.4625 114.969 46.315L115.582 45.7014C115.404 45.5244 115.795 45.1813 115.912 45.0639C115.761 45.0696 115.422 44.9703 115.461 44.6784C115.339 44.6695 115.241 44.5941 115.148 44.5015C114.983 44.3384 114.935 44.2371 115.138 44.0342C115.462 43.711 115.475 43.8039 115.763 43.7372L115.943 43.552C115.743 43.2298 115.624 42.8808 115.464 42.5212C115.1 41.7067 115.072 41.957 115.361 41.4911L114.46 40.7178C114.384 40.6413 114.418 39.7927 114.491 39.7198L115.489 38.7218C115.606 38.6044 115.713 38.5606 115.823 38.6692L115.973 38.8174L116.057 38.7338C116.103 38.6875 115.942 38.6297 116.192 38.3986L118.095 36.7772C118.768 36.2633 119.736 35.3143 120.348 34.8472C120.818 34.4882 121.358 33.948 121.829 33.5892C122.106 33.3768 122.326 33.1292 122.6 32.909L124.113 31.6395C124.679 31.1548 125.005 30.8885 125.626 31.3723L127.849 33.5144C127.947 33.3435 127.881 33.3888 127.831 33.1923C127.708 32.7138 127.239 32.6744 127.552 32.3962C127.683 32.2793 128.191 31.876 128.395 31.7759C128.661 31.646 128.404 31.8793 128.652 31.68C127.968 30.9956 128.268 30.9096 128.845 30.3923L136.857 22.5091C137.04 22.3249 137.329 21.9443 137.532 21.9003C137.66 21.8722 138.035 22.0362 138.177 22.1556L138.369 21.9626C138.246 21.764 138.217 21.5329 138.196 21.3187L137.872 18.7425C137.818 18.2154 137.543 17.2475 137.947 16.8431C138.104 16.6861 138.32 16.6419 138.495 16.682C138.902 16.7754 139.718 17.58 140.041 17.9082L141.962 19.6451L143.318 18.2762L146.406 15.1873L146.478 15.1989L148.858 12.819L148.862 12.732L149.012 12.5813L148.986 12.4044L149.383 12.0075L149.632 12.045L149.643 11.7847L149.884 11.5436L150.091 11.5395L150.066 11.3336L150.318 11.0823L150.41 11.0544L152.23 9.20648C152.23 9.20648 152.59 9.12361 153.112 9.64525C153.634 10.167 153.62 10.6056 153.62 10.6056L151.755 12.4699L151.737 12.5621L151.516 12.7834L151.305 12.7634L151.272 12.9717L151.036 13.2079L150.79 13.2233L150.81 13.434L150.428 13.8255L150.274 13.8226L150.108 13.9883L149.993 13.974L147.643 16.3236L147.629 16.4302L143.195 20.8767L143.318 20.9995L143.687 20.718C143.766 20.6574 143.873 20.6477 143.943 20.718L144.117 20.8923C144.254 21.0284 144.254 21.2508 144.117 21.3865L143.824 21.6806L143.797 21.9754C143.787 22.0908 143.791 22.1494 143.709 22.2314C143.626 22.3143 143.543 22.398 143.46 22.4809L143.231 22.2522L142.761 21.7818L142.414 21.7842L142.298 22.2227L142.523 22.4484C142.058 22.9139 142.309 22.6751 142.151 23.0922C142.099 23.2285 141.942 23.352 141.816 23.4785L141.719 23.3816C141.576 23.5506 141.686 23.6808 141.698 23.8646C141.719 24.205 141.409 24.6244 141.043 24.3146C141.004 24.5154 141.062 24.5532 140.851 24.7651C141.308 25.2222 140.985 25.3417 141.173 25.6674L132.776 34.5803C132.115 35.2443 132.208 34.9668 131.578 34.5742L131.356 34.8689C131.291 34.966 131.192 35.0967 131.148 35.1587C130.65 35.8582 130.801 35.9021 130.2 35.4158C130.061 35.3037 129.869 35.2314 129.718 35.3185C130.887 36.4874 130.26 36.2164 130.216 36.8962C130.185 37.3878 131.17 38.231 131.502 38.5626C132.177 39.2379 132.308 38.9387 132.424 39.0551C132.65 39.281 132.729 39.46 132.457 39.7312C132.733 40.0078 133.077 40.255 133.359 40.5048C134.276 41.317 135.792 42.2766 136.87 42.8656L139.479 44.2437L137.003 48.9107C136.912 49.0019 136.555 49.0935 136.456 49.0715C136.259 49.028 135.086 48.3687 134.878 48.2513C133.833 47.6604 132.747 47.0411 131.721 46.3581C130.892 45.8068 130.098 45.2425 129.335 44.5852C129.045 44.3347 129.203 44.5526 128.888 44.7663C128.774 44.8436 128.75 44.7923 128.629 44.9125L126.613 46.9296C126.486 47.0563 126.494 47.0952 126.39 47.2612L125.251 48.5487C125.416 48.8146 125.43 49.3067 125.606 49.4824C125.987 49.8641 126.637 49.7542 126.089 50.3521C125.915 50.5421 125.93 50.6407 125.978 50.8349C126.072 51.21 126.647 53.4844 126.8 53.6365C126.998 53.8347 127.174 53.8175 127.315 53.9588C127.469 54.1129 127.488 54.3833 127.283 54.5459L123.486 56.8219C123.31 56.639 123.33 56.4993 123.292 56.3065L121.955 49.6414C121.792 48.8131 121.174 48.108 120.261 48.141C119.679 48.1626 119.103 48.7037 118.651 49.1559C118.315 48.8193 118.076 48.8382 117.846 48.6081L117.395 48.157C117.054 48.4975 117.175 48.4984 116.751 48.414C116.602 48.5632 116.442 48.6807 116.355 48.8321C116.267 49.0186 116.269 49.0645 116.147 49.2242L115.304 50.0785C115.159 50.2254 115.032 50.3636 114.967 50.4732C114.697 50.9248 114.914 51.3569 114.405 51.8577L112.336 53.9091C112.449 54.0273 112.587 54.1892 112.473 54.303L110.446 56.3302L111.445 57.3291C111.557 57.4412 111.558 57.314 111.67 57.4256C111.797 57.5529 111.649 57.4523 111.753 57.6187C111.803 57.6981 111.861 57.7456 111.928 57.8118C111.736 58.0383 111.573 58.2315 111.316 58.4882L110.737 59.1323L110.971 59.3658C111.25 59.6443 110.612 60.1123 110.416 60.2261L110.03 59.8398C109.623 60.2462 109.627 60.5013 109.547 60.9017L109.124 63.0263C109.101 63.1391 109.045 63.5059 109.015 63.5754C108.944 63.7429 108.698 63.7856 108.551 63.8305L108.189 63.4682C108.032 63.3116 107.861 63.1627 107.768 63.4268C107.715 63.5767 107.71 63.7358 107.728 63.8946L108.484 67.9841C108.807 69.5805 107.019 68.1871 106.364 67.6895C104.424 66.2158 102.582 64.5779 100.774 62.9392L100.17 62.336C99.4216 61.473 99.725 61.3542 100.5 60.968" fill="#0072EC"/>
<path d="M200.613 33.7045V41.3767H175.695V33.7045H200.613ZM178.613 14.2616V62H168.776V14.2616H178.613ZM207.629 14.2616V62H197.826V14.2616H207.629ZM236.187 22.4256L223.203 62H212.744L230.482 14.2616H237.138L236.187 22.4256ZM246.974 62L233.958 22.4256L232.909 14.2616H239.63L257.466 62H246.974ZM246.384 44.2292V51.9343H221.171V44.2292H246.384ZM276.417 52.0326L287.663 14.2616H298.614L281.991 62H274.778L276.417 52.0326ZM266.057 14.2616L277.27 52.0326L278.975 62H271.696L255.171 14.2616H266.057ZM335.107 54.3278V62H309.697V54.3278H335.107ZM312.91 14.2616V62H303.074V14.2616H312.91ZM331.795 33.7045V41.18H309.697V33.7045H331.795ZM335.074 14.2616V21.9666H309.697V14.2616H335.074ZM379.698 14.2616V62H369.861L350.681 29.9995V62H340.845V14.2616H350.681L369.894 46.2948V14.2616H379.698Z" fill="white"/>
</svg>
